<svg xmlns="http://www.w3.org/2000/svg" viewBox="0 0 117.6 117.5">
  <style type="text/css">.cls-0 {fill:#000440;}
.cls-1 {fill:#FFFFFF;}</style>
  <rect class="cls-0" width="117.8" height="117.9"/>
  <path class="cls-1" d="m83 60.5c-1.3 0.3-2.7 1.3-2.6 3.2-0.1 10.1-7.6 19.2-19.4 19.2-10.8 0-18.9-8.5-19-19v-13.1c0-1.5-1.2-2.9-2.9-2.9s-3.1 1.4-3.1 2.9l0.1 13.1c0.3 13.4 10.3 25.1 23.8 25.1h1.2c12.8 0 24.8-9.8 25-25.4 0.1-2.1-1.6-3.4-3.1-3.1zm-33.9-0.1c1.5 0 2.9-1.2 2.9-2.7v-25.1c0-1.3-1.2-2.6-2.8-2.6-1.5 0-2.9 1.2-2.9 2.6v25.4c-0.1 1.1 1.4 2.4 2.8 2.4zm9.6-6.2h0.2c1.5 0 2.7-1.2 2.7-2.7v-25.4c0-1.2-1.1-2.8-2.7-2.8s-2.9 1.2-2.9 2.8v25.4c0 1.5 1.2 2.7 2.7 2.7zm9.8-1.4c1.8 0.1 3-1.4 3-2.6v-19c0-1.5-1.3-2.7-2.8-2.7s-3.1 1.2-3.1 2.7v19c0 1.4 1.3 2.6 2.9 2.6zm7-15.4 0.1 16.9-1.5 1-14.1 13.7-4.1-3.9c-1.1-0.9-2.7-0.9-3.8 0.2s-1 2.8 0.1 3.9l5.4 5.2c1.3 1.3 3.3 1.3 4.4 0.3l19.2-19.1 0.1-0.1v-0.1l-0.1 0.1h0.1v-18.1c-0.1-1.4-1.4-2.8-3-2.8-1.5 0-2.7 1.3-2.8 2.8z"/>
</svg>
